#!OML:ASF X:\für Bonn\!DataBase\2005_08_10_Bjorn_Final\c3d\bjorn.ASF
:FULLY-SPECIFIED
:DEGREES
219
root 10.3994 8.58886 0.127624 -290.489 88.1298 -282.058
lowerback 47.277 -3.41815 8.40538
upperback 21.7596 3.91281 2.50074
thorax 4.49959 4.28346 -2.2989
lowerneck -7.64906 -8.94672 3.80353
upperneck 7.61626 -12.2376 -1.17233
head 3.49447 -5.9768 -1.66124
rclavicle 3.49861e-014 1.90833e-014
rhumerus 23.3749 -15.2712 -74.1151
rradius 20.9974
rwrist 11.0906
rhand -43.5029 36.1184
rfingers 7.12502
rthumb -16.3426 6.78698
lclavicle 3.49861e-014 1.90833e-014
lhumerus -4.08756 -39.2935 76.611
lradius 42.1084
lwrist -6.48792
lhand -24.6328 -11.137
lfingers 7.12502
lthumb 1.86622 18.8346
rfemur -30.307 -66.9064 -68.6897
rtibia 149.197
rfoot -49.2879 76.2174
rtoes -22.24
lfemur -93.7439 54.767 -29.0537
ltibia 149.074
lfoot -31.1048 -21.8652
ltoes -27.3892
220
root 10.3974 8.66793 0.124418 -292.983 88.2163 -284.82
lowerback 47.2206 -3.30073 8.29926
upperback 21.7014 3.97525 2.50917
thorax 4.43514 4.28667 -2.26823
lowerneck -7.60588 -8.94206 3.75943
upperneck 7.55372 -12.2259 -1.15765
head 3.46843 -5.97358 -1.64353
rclavicle -4.13472e-014 -1.03368e-014
rhumerus 23.3 -15.0697 -73.9771
rradius 21.015
rwrist 10.7924
rhand -42.9272 35.3068
rfingers 7.12502
rthumb -15.7883 5.93062
lclavicle -4.13472e-014 -1.03368e-014
lhumerus -4.05472 -39.0555 76.6525
lradius 42.263
lwrist -6.49277
lhand -24.9308 -10.9382
lfingers 7.12502
lthumb 1.57842 19.0357
rfemur -33.4464 -66.2321 -64.1607
rtibia 148.75
rfoot -47.1277 75.1614
rtoes -23.0269
lfemur -93.0839 53.0291 -28.6007
ltibia 148.532
lfoot -30.7817 -21.186
ltoes -27.7311
221
root 10.3942 8.75219 0.121199 -295.698 88.3011 -287.815
lowerback 47.1478 -3.18128 8.17167
upperback 21.656 4.03108 2.53374
thorax 4.38404 4.28403 -2.2078
lowerneck -7.62751 -8.91697 3.66534
upperneck 7.53955 -12.1839 -1.15026
head 3.47539 -5.95554 -1.62539
rclavicle -6.04305e-014 1.74931e-014
rhumerus 23.2058 -14.7871 -73.7787
rradius 21.0747
rwrist 10.4345
rhand -42.3933 34.5334
rfingers 7.12502
rthumb -15.274 5.11737
lclavicle -6.04305e-014 1.74931e-014
lhumerus -4.02048 -38.8507 76.7073
lradius 42.3981
lwrist -6.30227
lhand -25.3293 -10.8604
lfingers 7.12502
lthumb 1.19351 19.116
rfemur -36.7337 -65.3507 -59.4238
rtibia 148.262
rfoot -44.8167 74.0708
rtoes -23.7636
lfemur -92.4604 51.085 -28.1597
ltibia 147.958
lfoot -30.3727 -20.4441
ltoes -27.9515
222
root 10.3913 8.83961 0.118941 -298.328 88.3829 -290.744
lowerback 47.0754 -3.06789 8.07369
upperback 21.5765 4.08487 2.52104
thorax 4.29936 4.28273 -2.20223
lowerneck -7.53329 -8.90359 3.60607
upperneck 7.4869 -12.1621 -1.07096
head 3.4486 -5.94448 -1.58161
rclavicle -9.54166e-015 -4.6118e-014
rhumerus 23.0791 -14.582 -73.6754
rradius 21.0874
rwrist 10.1557
rhand -41.9504 33.7223
rfingers 7.12502
rthumb -14.8474 4.27425
lclavicle -9.54166e-015 -4.6118e-014
lhumerus -4.02406 -38.7369 76.7035
lradius 42.554
lwrist -6.05366
lhand -25.8023 -10.8356
lfingers 7.12502
lthumb 0.736651 19.1428
rfemur -40.0392 -64.2421 -54.623
rtibia 147.737
rfoot -42.5161 72.9252
rtoes -24.3918
lfemur -91.8512 49.2088 -27.7461
ltibia 147.352
lfoot -30.0087 -19.7131
ltoes -28.2921
223
root 10.3891 8.93148 0.116466 -300.861 88.4409 -293.559
lowerback 47.0073 -2.96447 7.9708
upperback 21.512 4.12842 2.48609
thorax 4.23185 4.28112 -2.21344
lowerneck -7.43175 -8.86984 3.5892
upperneck 7.39924 -12.1175 -0.995666
head 3.40586 -5.92233 -1.54297
rclavicle 1.27222e-014 2.14687e-014
rhumerus 22.9202 -14.2886 -73.5332
rradius 21.144
rwrist 9.72296
rhand -41.5047 33.0387
rfingers 7.12502
rthumb -14.4179 3.55947
lclavicle 1.27222e-014 2.14687e-014
lhumerus -4.03024 -38.5903 76.6758
lradius 42.7182
lwrist -5.8399
lhand -26.2581 -10.7837
lfingers 7.12502
lthumb 0.296447 19.1958
rfemur -43.3419 -62.814 -49.8276
rtibia 147.177
rfoot -39.9265 71.7894
rtoes -24.8945
lfemur -91.1658 47.3374 -27.3278
ltibia 146.714
lfoot -29.6785 -18.9733
ltoes -28.6005
